<?xml version="1.0" encoding="UTF-8" standalone="no"?>
<!DOCTYPE svg PUBLIC "-//W3C//DTD SVG 1.1//EN" "http://www.w3.org/Graphics/SVG/1.1/DTD/svg11.dtd">
<svg width="100%" height="100%" viewBox="0 0 500 500" version="1.1" xmlns="http://www.w3.org/2000/svg" xmlns:xlink="http://www.w3.org/1999/xlink" xml:space="preserve" xmlns:serif="http://www.serif.com/" style="fill-rule:evenodd;clip-rule:evenodd;stroke-linecap:square;">
    <g id="book-opened.svg" transform="matrix(0.868056,0,0,0.868056,31.25,406.25)">
        <g transform="matrix(1,0,0,1,-24,-24)">
            <path d="M24,12C24,12 20,8 16,8C12,8 6,12 6,12L6,40C6,40 12,36 16,36C20,36 24,40 24,40C26.666,37.334 29.334,36 32,36C34.666,36 38,37.334 42,40L42,12C38,9.334 34.666,8 32,8C29.334,8 26.666,9.334 24,12Z" style="fill:none;fill-rule:nonzero;stroke:black;stroke-width:2px;"/>
            <path d="M24,12L24,40" style="fill:none;fill-rule:nonzero;stroke:black;stroke-width:2px;stroke-linecap:round;"/>
        </g>
    </g>
    <g id="coffee.svg" transform="matrix(0.868056,0,0,0.868056,31.25,156.25)">
        <g transform="matrix(1,0,0,1,-24,-24)">
            <clipPath id="_clip1">
                <rect x="0" y="0" width="48" height="48"/>
            </clipPath>
            <g clip-path="url(#_clip1)">
                <path d="M10,24L34,24L34,34C34,39.523 29.523,44 24,44L20,44C14.477,44 10,39.523 10,34L10,24Z" style="fill:none;fill-rule:nonzero;stroke:black;stroke-width:2px;"/>
                <path d="M34,26L38,26C40.209,26 42,27.791 42,30C42,32.209 40.209,34 38,34L34,34" style="fill:none;fill-rule:nonzero;stroke:black;stroke-width:2px;"/>
                <path d="M18,18C18,18 16,17 16,14C16,11 18,10 18,10" style="fill:none;fill-rule:nonzero;stroke:black;stroke-width:2px;"/>
                <path d="M24,6C24,6 26,7 26,10C26,13 24,14 24,14" style="fill:none;fill-rule:nonzero;stroke:black;stroke-width:2px;"/>
            </g>
        </g>
    </g>
    <g id="headphones.svg" transform="matrix(0.868056,0,0,0.868056,31.25,281.25)">
        <g transform="matrix(1,0,0,1,-24,-24)">
            <path d="M42,26L38,26C35.791,26 34,27.791 34,30L34,34C34,36.209 35.791,38 38,38C40.209,38 42,36.209 42,34L42,26C42,16.059 33.941,8 24,8C14.059,8 6,16.059 6,26L6,34C6,36.209 7.791,38 10,38C12.209,38 14,36.209 14,34L14,30C14,27.791 12.209,26 10,26L6,26" style="fill:none;fill-rule:nonzero;stroke:black;stroke-width:2px;stroke-linecap:round;"/>
        </g>
    </g>
    <g id="music.svg" transform="matrix(0.868056,0,0,0.868056,31.25,31.25)">
        <g transform="matrix(1,0,0,1,-24,-24)">
            <path d="M16,36L16,12L40,6L40,32" style="fill:none;fill-rule:nonzero;stroke:black;stroke-width:2px;stroke-linecap:round;"/>
            <path d="M11.894,41.021C8.959,42.089 6.002,41.369 5.29,39.412C4.577,37.455 6.38,35.003 9.315,33.934C12.25,32.866 15.207,33.586 15.919,35.543C16.632,37.5 14.829,39.953 11.894,41.021ZM35.894,37.021C32.959,38.089 30.002,37.369 29.29,35.412C28.577,33.455 30.38,31.003 33.315,29.934C36.25,28.866 39.207,29.586 39.919,31.543C40.632,33.5 38.829,35.953 35.894,37.021Z" style="fill:none;fill-rule:nonzero;stroke:black;stroke-width:2px;"/>
        </g>
    </g>
    <g id="minus.svg" transform="matrix(5.31531e-17,-0.868056,0.868056,5.31531e-17,31.25,93.75)">
        <g transform="matrix(1,0,0,1,-24,-24)">
            <path d="M40,24L8,24" style="fill:none;fill-rule:nonzero;stroke:black;stroke-width:2px;"/>
        </g>
    </g>
    <g id="minus.svg1" serif:id="minus.svg" transform="matrix(5.31531e-17,-0.868056,0.868056,5.31531e-17,31.25,343.75)">
        <g transform="matrix(1,0,0,1,-24,-24)">
            <path d="M40,24L8,24" style="fill:none;fill-rule:nonzero;stroke:black;stroke-width:2px;"/>
        </g>
    </g>
    <g transform="matrix(0.0730813,0.0730813,-0.0730813,0.0730813,0.848167,143.915)">
        <path d="M640,192L640,256L704,256L704,320L768,320L768,384L832,384" style="fill:none;stroke:black;stroke-width:13.55px;stroke-linecap:butt;stroke-linejoin:round;stroke-miterlimit:1.5;"/>
    </g>
    <g transform="matrix(0.0730813,0.0730813,-0.0730813,0.0730813,0.848167,393.915)">
        <path d="M640,192L640,256L704,256L704,320L768,320L768,384L832,384" style="fill:none;stroke:black;stroke-width:13.55px;stroke-linecap:butt;stroke-linejoin:round;stroke-miterlimit:1.5;"/>
    </g>
    <g id="book-opened.svg1" serif:id="book-opened.svg" transform="matrix(0.868056,0,0,0.868056,93.75,218.75)">
        <g transform="matrix(1,0,0,1,-24,-24)">
            <path d="M24,12C24,12 20,8 16,8C12,8 6,12 6,12L6,40C6,40 12,36 16,36C20,36 24,40 24,40C26.666,37.334 29.334,36 32,36C34.666,36 38,37.334 42,40L42,12C38,9.334 34.666,8 32,8C29.334,8 26.666,9.334 24,12Z" style="fill:none;fill-rule:nonzero;stroke:black;stroke-width:2px;"/>
            <path d="M24,12L24,40" style="fill:none;fill-rule:nonzero;stroke:black;stroke-width:2px;stroke-linecap:round;"/>
        </g>
    </g>
    <g id="headphones.svg1" serif:id="headphones.svg" transform="matrix(0.868056,0,0,0.868056,93.75,93.75)">
        <g transform="matrix(1,0,0,1,-24,-24)">
            <path d="M42,26L38,26C35.791,26 34,27.791 34,30L34,34C34,36.209 35.791,38 38,38C40.209,38 42,36.209 42,34L42,26C42,16.059 33.941,8 24,8C14.059,8 6,16.059 6,26L6,34C6,36.209 7.791,38 10,38C12.209,38 14,36.209 14,34L14,30C14,27.791 12.209,26 10,26L6,26" style="fill:none;fill-rule:nonzero;stroke:black;stroke-width:2px;stroke-linecap:round;"/>
        </g>
    </g>
    <g id="minus.svg2" serif:id="minus.svg" transform="matrix(5.31531e-17,-0.868056,0.868056,5.31531e-17,93.75,156.25)">
        <g transform="matrix(1,0,0,1,-24,-24)">
            <path d="M40,24L8,24" style="fill:none;fill-rule:nonzero;stroke:black;stroke-width:2px;"/>
        </g>
    </g>
    <g transform="matrix(0.0730813,0.0730813,-0.0730813,0.0730813,63.3482,-43.5853)">
        <path d="M640,192L640,256L704,256L704,320L768,320L768,384L832,384" style="fill:none;stroke:black;stroke-width:13.55px;stroke-linecap:butt;stroke-linejoin:round;stroke-miterlimit:1.5;"/>
    </g>
    <g transform="matrix(0.0730813,0.0730813,-0.0730813,0.0730813,63.3482,206.415)">
        <path d="M640,192L640,256L704,256L704,320L768,320L768,384L832,384" style="fill:none;stroke:black;stroke-width:13.55px;stroke-linecap:butt;stroke-linejoin:round;stroke-miterlimit:1.5;"/>
    </g>
    <g id="coffee.svg1" serif:id="coffee.svg" transform="matrix(0.868056,0,0,0.868056,93.75,468.75)">
        <g transform="matrix(1,0,0,1,-24,-24)">
            <clipPath id="_clip2">
                <rect x="0" y="0" width="48" height="48"/>
            </clipPath>
            <g clip-path="url(#_clip2)">
                <path d="M10,24L34,24L34,34C34,39.523 29.523,44 24,44L20,44C14.477,44 10,39.523 10,34L10,24Z" style="fill:none;fill-rule:nonzero;stroke:black;stroke-width:2px;"/>
                <path d="M34,26L38,26C40.209,26 42,27.791 42,30C42,32.209 40.209,34 38,34L34,34" style="fill:none;fill-rule:nonzero;stroke:black;stroke-width:2px;"/>
                <path d="M18,18C18,18 16,17 16,14C16,11 18,10 18,10" style="fill:none;fill-rule:nonzero;stroke:black;stroke-width:2px;"/>
                <path d="M24,6C24,6 26,7 26,10C26,13 24,14 24,14" style="fill:none;fill-rule:nonzero;stroke:black;stroke-width:2px;"/>
            </g>
        </g>
    </g>
    <g id="music.svg1" serif:id="music.svg" transform="matrix(0.868056,0,0,0.868056,93.75,343.75)">
        <g transform="matrix(1,0,0,1,-24,-24)">
            <path d="M16,36L16,12L40,6L40,32" style="fill:none;fill-rule:nonzero;stroke:black;stroke-width:2px;stroke-linecap:round;"/>
            <path d="M11.894,41.021C8.959,42.089 6.002,41.369 5.29,39.412C4.577,37.455 6.38,35.003 9.315,33.934C12.25,32.866 15.207,33.586 15.919,35.543C16.632,37.5 14.829,39.953 11.894,41.021ZM35.894,37.021C32.959,38.089 30.002,37.369 29.29,35.412C28.577,33.455 30.38,31.003 33.315,29.934C36.25,28.866 39.207,29.586 39.919,31.543C40.632,33.5 38.829,35.953 35.894,37.021Z" style="fill:none;fill-rule:nonzero;stroke:black;stroke-width:2px;"/>
        </g>
    </g>
    <g id="minus.svg3" serif:id="minus.svg" transform="matrix(5.31531e-17,-0.868056,0.868056,5.31531e-17,93.75,406.25)">
        <g transform="matrix(1,0,0,1,-24,-24)">
            <path d="M40,24L8,24" style="fill:none;fill-rule:nonzero;stroke:black;stroke-width:2px;"/>
        </g>
    </g>
    <g id="coffee.svg2" serif:id="coffee.svg" transform="matrix(0.868056,0,0,0.868056,156.25,281.25)">
        <g transform="matrix(1,0,0,1,-24,-24)">
            <clipPath id="_clip3">
                <rect x="0" y="0" width="48" height="48"/>
            </clipPath>
            <g clip-path="url(#_clip3)">
                <path d="M10,24L34,24L34,34C34,39.523 29.523,44 24,44L20,44C14.477,44 10,39.523 10,34L10,24Z" style="fill:none;fill-rule:nonzero;stroke:black;stroke-width:2px;"/>
                <path d="M34,26L38,26C40.209,26 42,27.791 42,30C42,32.209 40.209,34 38,34L34,34" style="fill:none;fill-rule:nonzero;stroke:black;stroke-width:2px;"/>
                <path d="M18,18C18,18 16,17 16,14C16,11 18,10 18,10" style="fill:none;fill-rule:nonzero;stroke:black;stroke-width:2px;"/>
                <path d="M24,6C24,6 26,7 26,10C26,13 24,14 24,14" style="fill:none;fill-rule:nonzero;stroke:black;stroke-width:2px;"/>
            </g>
        </g>
    </g>
    <g id="headphones.svg2" serif:id="headphones.svg" transform="matrix(0.868056,0,0,0.868056,156.25,406.25)">
        <g transform="matrix(1,0,0,1,-24,-24)">
            <path d="M42,26L38,26C35.791,26 34,27.791 34,30L34,34C34,36.209 35.791,38 38,38C40.209,38 42,36.209 42,34L42,26C42,16.059 33.941,8 24,8C14.059,8 6,16.059 6,26L6,34C6,36.209 7.791,38 10,38C12.209,38 14,36.209 14,34L14,30C14,27.791 12.209,26 10,26L6,26" style="fill:none;fill-rule:nonzero;stroke:black;stroke-width:2px;stroke-linecap:round;"/>
        </g>
    </g>
    <g id="music.svg2" serif:id="music.svg" transform="matrix(0.868056,0,0,0.868056,156.25,156.25)">
        <g transform="matrix(1,0,0,1,-24,-24)">
            <path d="M16,36L16,12L40,6L40,32" style="fill:none;fill-rule:nonzero;stroke:black;stroke-width:2px;stroke-linecap:round;"/>
            <path d="M11.894,41.021C8.959,42.089 6.002,41.369 5.29,39.412C4.577,37.455 6.38,35.003 9.315,33.934C12.25,32.866 15.207,33.586 15.919,35.543C16.632,37.5 14.829,39.953 11.894,41.021ZM35.894,37.021C32.959,38.089 30.002,37.369 29.29,35.412C28.577,33.455 30.38,31.003 33.315,29.934C36.25,28.866 39.207,29.586 39.919,31.543C40.632,33.5 38.829,35.953 35.894,37.021Z" style="fill:none;fill-rule:nonzero;stroke:black;stroke-width:2px;"/>
        </g>
    </g>
    <g id="minus.svg4" serif:id="minus.svg" transform="matrix(5.31531e-17,-0.868056,0.868056,5.31531e-17,156.25,218.75)">
        <g transform="matrix(1,0,0,1,-24,-24)">
            <path d="M40,24L8,24" style="fill:none;fill-rule:nonzero;stroke:black;stroke-width:2px;"/>
        </g>
    </g>
    <g id="minus.svg5" serif:id="minus.svg" transform="matrix(5.31531e-17,-0.868056,0.868056,5.31531e-17,156.25,468.75)">
        <g transform="matrix(1,0,0,1,-24,-24)">
            <path d="M40,24L8,24" style="fill:none;fill-rule:nonzero;stroke:black;stroke-width:2px;"/>
        </g>
    </g>
    <g transform="matrix(0.0730813,0.0730813,-0.0730813,0.0730813,125.848,268.915)">
        <path d="M640,192L640,256L704,256L704,320L768,320L768,384L832,384" style="fill:none;stroke:black;stroke-width:13.55px;stroke-linecap:butt;stroke-linejoin:round;stroke-miterlimit:1.5;"/>
    </g>
    <g id="music.svg3" serif:id="music.svg" transform="matrix(0.868056,0,0,0.868056,218.75,468.75)">
        <g transform="matrix(1,0,0,1,-24,-24)">
            <path d="M16,36L16,12L40,6L40,32" style="fill:none;fill-rule:nonzero;stroke:black;stroke-width:2px;stroke-linecap:round;"/>
            <path d="M11.894,41.021C8.959,42.089 6.002,41.369 5.29,39.412C4.577,37.455 6.38,35.003 9.315,33.934C12.25,32.866 15.207,33.586 15.919,35.543C16.632,37.5 14.829,39.953 11.894,41.021ZM35.894,37.021C32.959,38.089 30.002,37.369 29.29,35.412C28.577,33.455 30.38,31.003 33.315,29.934C36.25,28.866 39.207,29.586 39.919,31.543C40.632,33.5 38.829,35.953 35.894,37.021Z" style="fill:none;fill-rule:nonzero;stroke:black;stroke-width:2px;"/>
        </g>
    </g>
    <g id="coffee.svg3" serif:id="coffee.svg" transform="matrix(0.868056,0,0,0.868056,281.25,406.25)">
        <g transform="matrix(1,0,0,1,-24,-24)">
            <clipPath id="_clip4">
                <rect x="0" y="0" width="48" height="48"/>
            </clipPath>
            <g clip-path="url(#_clip4)">
                <path d="M10,24L34,24L34,34C34,39.523 29.523,44 24,44L20,44C14.477,44 10,39.523 10,34L10,24Z" style="fill:none;fill-rule:nonzero;stroke:black;stroke-width:2px;"/>
                <path d="M34,26L38,26C40.209,26 42,27.791 42,30C42,32.209 40.209,34 38,34L34,34" style="fill:none;fill-rule:nonzero;stroke:black;stroke-width:2px;"/>
                <path d="M18,18C18,18 16,17 16,14C16,11 18,10 18,10" style="fill:none;fill-rule:nonzero;stroke:black;stroke-width:2px;"/>
                <path d="M24,6C24,6 26,7 26,10C26,13 24,14 24,14" style="fill:none;fill-rule:nonzero;stroke:black;stroke-width:2px;"/>
            </g>
        </g>
    </g>
    <g id="music.svg4" serif:id="music.svg" transform="matrix(0.868056,0,0,0.868056,281.25,281.25)">
        <g transform="matrix(1,0,0,1,-24,-24)">
            <path d="M16,36L16,12L40,6L40,32" style="fill:none;fill-rule:nonzero;stroke:black;stroke-width:2px;stroke-linecap:round;"/>
            <path d="M11.894,41.021C8.959,42.089 6.002,41.369 5.29,39.412C4.577,37.455 6.38,35.003 9.315,33.934C12.25,32.866 15.207,33.586 15.919,35.543C16.632,37.5 14.829,39.953 11.894,41.021ZM35.894,37.021C32.959,38.089 30.002,37.369 29.29,35.412C28.577,33.455 30.38,31.003 33.315,29.934C36.25,28.866 39.207,29.586 39.919,31.543C40.632,33.5 38.829,35.953 35.894,37.021Z" style="fill:none;fill-rule:nonzero;stroke:black;stroke-width:2px;"/>
        </g>
    </g>
    <g id="minus.svg6" serif:id="minus.svg" transform="matrix(5.31531e-17,-0.868056,0.868056,5.31531e-17,281.25,343.75)">
        <g transform="matrix(1,0,0,1,-24,-24)">
            <path d="M40,24L8,24" style="fill:none;fill-rule:nonzero;stroke:black;stroke-width:2px;"/>
        </g>
    </g>
    <g transform="matrix(0.0730813,0.0730813,-0.0730813,0.0730813,250.848,393.915)">
        <path d="M640,192L640,256L704,256L704,320L768,320L768,384L832,384" style="fill:none;stroke:black;stroke-width:13.55px;stroke-linecap:butt;stroke-linejoin:round;stroke-miterlimit:1.5;"/>
    </g>
    <g id="book-opened.svg2" serif:id="book-opened.svg" transform="matrix(0.868056,0,0,0.868056,343.75,468.75)">
        <g transform="matrix(1,0,0,1,-24,-24)">
            <path d="M24,12C24,12 20,8 16,8C12,8 6,12 6,12L6,40C6,40 12,36 16,36C20,36 24,40 24,40C26.666,37.334 29.334,36 32,36C34.666,36 38,37.334 42,40L42,12C38,9.334 34.666,8 32,8C29.334,8 26.666,9.334 24,12Z" style="fill:none;fill-rule:nonzero;stroke:black;stroke-width:2px;"/>
            <path d="M24,12L24,40" style="fill:none;fill-rule:nonzero;stroke:black;stroke-width:2px;stroke-linecap:round;"/>
        </g>
    </g>
    <g id="coffee.svg4" serif:id="coffee.svg" transform="matrix(0.868056,0,0,0.868056,343.75,218.75)">
        <g transform="matrix(1,0,0,1,-24,-24)">
            <clipPath id="_clip5">
                <rect x="0" y="0" width="48" height="48"/>
            </clipPath>
            <g clip-path="url(#_clip5)">
                <path d="M10,24L34,24L34,34C34,39.523 29.523,44 24,44L20,44C14.477,44 10,39.523 10,34L10,24Z" style="fill:none;fill-rule:nonzero;stroke:black;stroke-width:2px;"/>
                <path d="M34,26L38,26C40.209,26 42,27.791 42,30C42,32.209 40.209,34 38,34L34,34" style="fill:none;fill-rule:nonzero;stroke:black;stroke-width:2px;"/>
                <path d="M18,18C18,18 16,17 16,14C16,11 18,10 18,10" style="fill:none;fill-rule:nonzero;stroke:black;stroke-width:2px;"/>
                <path d="M24,6C24,6 26,7 26,10C26,13 24,14 24,14" style="fill:none;fill-rule:nonzero;stroke:black;stroke-width:2px;"/>
            </g>
        </g>
    </g>
    <g id="headphones.svg3" serif:id="headphones.svg" transform="matrix(0.868056,0,0,0.868056,343.75,343.75)">
        <g transform="matrix(1,0,0,1,-24,-24)">
            <path d="M42,26L38,26C35.791,26 34,27.791 34,30L34,34C34,36.209 35.791,38 38,38C40.209,38 42,36.209 42,34L42,26C42,16.059 33.941,8 24,8C14.059,8 6,16.059 6,26L6,34C6,36.209 7.791,38 10,38C12.209,38 14,36.209 14,34L14,30C14,27.791 12.209,26 10,26L6,26" style="fill:none;fill-rule:nonzero;stroke:black;stroke-width:2px;stroke-linecap:round;"/>
        </g>
    </g>
    <g id="music.svg5" serif:id="music.svg" transform="matrix(0.868056,0,0,0.868056,343.75,93.75)">
        <g transform="matrix(1,0,0,1,-24,-24)">
            <path d="M16,36L16,12L40,6L40,32" style="fill:none;fill-rule:nonzero;stroke:black;stroke-width:2px;stroke-linecap:round;"/>
            <path d="M11.894,41.021C8.959,42.089 6.002,41.369 5.29,39.412C4.577,37.455 6.38,35.003 9.315,33.934C12.25,32.866 15.207,33.586 15.919,35.543C16.632,37.5 14.829,39.953 11.894,41.021ZM35.894,37.021C32.959,38.089 30.002,37.369 29.29,35.412C28.577,33.455 30.38,31.003 33.315,29.934C36.25,28.866 39.207,29.586 39.919,31.543C40.632,33.5 38.829,35.953 35.894,37.021Z" style="fill:none;fill-rule:nonzero;stroke:black;stroke-width:2px;"/>
        </g>
    </g>
    <g id="minus.svg7" serif:id="minus.svg" transform="matrix(5.31531e-17,-0.868056,0.868056,5.31531e-17,343.75,156.25)">
        <g transform="matrix(1,0,0,1,-24,-24)">
            <path d="M40,24L8,24" style="fill:none;fill-rule:nonzero;stroke:black;stroke-width:2px;"/>
        </g>
    </g>
    <g id="minus.svg8" serif:id="minus.svg" transform="matrix(5.31531e-17,-0.868056,0.868056,5.31531e-17,343.75,406.25)">
        <g transform="matrix(1,0,0,1,-24,-24)">
            <path d="M40,24L8,24" style="fill:none;fill-rule:nonzero;stroke:black;stroke-width:2px;"/>
        </g>
    </g>
    <g transform="matrix(0.0730813,0.0730813,-0.0730813,0.0730813,313.348,206.415)">
        <path d="M640,192L640,256L704,256L704,320L768,320L768,384L832,384" style="fill:none;stroke:black;stroke-width:13.55px;stroke-linecap:butt;stroke-linejoin:round;stroke-miterlimit:1.5;"/>
    </g>
    <g id="book-opened.svg3" serif:id="book-opened.svg" transform="matrix(0.868056,0,0,0.868056,406.25,281.25)">
        <g transform="matrix(1,0,0,1,-24,-24)">
            <path d="M24,12C24,12 20,8 16,8C12,8 6,12 6,12L6,40C6,40 12,36 16,36C20,36 24,40 24,40C26.666,37.334 29.334,36 32,36C34.666,36 38,37.334 42,40L42,12C38,9.334 34.666,8 32,8C29.334,8 26.666,9.334 24,12Z" style="fill:none;fill-rule:nonzero;stroke:black;stroke-width:2px;"/>
            <path d="M24,12L24,40" style="fill:none;fill-rule:nonzero;stroke:black;stroke-width:2px;stroke-linecap:round;"/>
        </g>
    </g>
    <g id="coffee.svg5" serif:id="coffee.svg" transform="matrix(0.868056,0,0,0.868056,406.25,31.25)">
        <g transform="matrix(1,0,0,1,-24,-24)">
            <clipPath id="_clip6">
                <rect x="0" y="0" width="48" height="48"/>
            </clipPath>
            <g clip-path="url(#_clip6)">
                <path d="M10,24L34,24L34,34C34,39.523 29.523,44 24,44L20,44C14.477,44 10,39.523 10,34L10,24Z" style="fill:none;fill-rule:nonzero;stroke:black;stroke-width:2px;"/>
                <path d="M34,26L38,26C40.209,26 42,27.791 42,30C42,32.209 40.209,34 38,34L34,34" style="fill:none;fill-rule:nonzero;stroke:black;stroke-width:2px;"/>
                <path d="M18,18C18,18 16,17 16,14C16,11 18,10 18,10" style="fill:none;fill-rule:nonzero;stroke:black;stroke-width:2px;"/>
                <path d="M24,6C24,6 26,7 26,10C26,13 24,14 24,14" style="fill:none;fill-rule:nonzero;stroke:black;stroke-width:2px;"/>
            </g>
        </g>
    </g>
    <g id="headphones.svg4" serif:id="headphones.svg" transform="matrix(0.868056,0,0,0.868056,406.25,156.25)">
        <g transform="matrix(1,0,0,1,-24,-24)">
            <path d="M42,26L38,26C35.791,26 34,27.791 34,30L34,34C34,36.209 35.791,38 38,38C40.209,38 42,36.209 42,34L42,26C42,16.059 33.941,8 24,8C14.059,8 6,16.059 6,26L6,34C6,36.209 7.791,38 10,38C12.209,38 14,36.209 14,34L14,30C14,27.791 12.209,26 10,26L6,26" style="fill:none;fill-rule:nonzero;stroke:black;stroke-width:2px;stroke-linecap:round;"/>
        </g>
    </g>
    <g id="minus.svg9" serif:id="minus.svg" transform="matrix(5.31531e-17,-0.868056,0.868056,5.31531e-17,406.25,218.75)">
        <g transform="matrix(1,0,0,1,-24,-24)">
            <path d="M40,24L8,24" style="fill:none;fill-rule:nonzero;stroke:black;stroke-width:2px;"/>
        </g>
    </g>
    <g transform="matrix(0.0730813,0.0730813,-0.0730813,0.0730813,375.848,18.9147)">
        <path d="M640,192L640,256L704,256L704,320L768,320L768,384L832,384" style="fill:none;stroke:black;stroke-width:13.55px;stroke-linecap:butt;stroke-linejoin:round;stroke-miterlimit:1.5;"/>
    </g>
    <g transform="matrix(0.0730813,0.0730813,-0.0730813,0.0730813,375.848,268.915)">
        <path d="M640,192L640,256L704,256L704,320L768,320L768,384L832,384" style="fill:none;stroke:black;stroke-width:13.55px;stroke-linecap:butt;stroke-linejoin:round;stroke-miterlimit:1.5;"/>
    </g>
    <g id="book-opened.svg4" serif:id="book-opened.svg" transform="matrix(0.868056,0,0,0.868056,468.75,93.75)">
        <g transform="matrix(1,0,0,1,-24,-24)">
            <path d="M24,12C24,12 20,8 16,8C12,8 6,12 6,12L6,40C6,40 12,36 16,36C20,36 24,40 24,40C26.666,37.334 29.334,36 32,36C34.666,36 38,37.334 42,40L42,12C38,9.334 34.666,8 32,8C29.334,8 26.666,9.334 24,12Z" style="fill:none;fill-rule:nonzero;stroke:black;stroke-width:2px;"/>
            <path d="M24,12L24,40" style="fill:none;fill-rule:nonzero;stroke:black;stroke-width:2px;stroke-linecap:round;"/>
        </g>
    </g>
    <g id="minus.svg10" serif:id="minus.svg" transform="matrix(5.31531e-17,-0.868056,0.868056,5.31531e-17,468.75,31.25)">
        <g transform="matrix(1,0,0,1,-24,-24)">
            <path d="M40,24L8,24" style="fill:none;fill-rule:nonzero;stroke:black;stroke-width:2px;"/>
        </g>
    </g>
    <g transform="matrix(0.0730813,0.0730813,-0.0730813,0.0730813,438.348,81.4147)">
        <path d="M640,192L640,256L704,256L704,320L768,320L768,384L832,384" style="fill:none;stroke:black;stroke-width:13.55px;stroke-linecap:butt;stroke-linejoin:round;stroke-miterlimit:1.5;"/>
    </g>
    <g id="music.svg6" serif:id="music.svg" transform="matrix(0.868056,0,0,0.868056,406.25,406.25)">
        <g transform="matrix(1,0,0,1,-24,-24)">
            <path d="M16,36L16,12L40,6L40,32" style="fill:none;fill-rule:nonzero;stroke:black;stroke-width:2px;stroke-linecap:round;"/>
            <path d="M11.894,41.021C8.959,42.089 6.002,41.369 5.29,39.412C4.577,37.455 6.38,35.003 9.315,33.934C12.25,32.866 15.207,33.586 15.919,35.543C16.632,37.5 14.829,39.953 11.894,41.021ZM35.894,37.021C32.959,38.089 30.002,37.369 29.29,35.412C28.577,33.455 30.38,31.003 33.315,29.934C36.25,28.866 39.207,29.586 39.919,31.543C40.632,33.5 38.829,35.953 35.894,37.021Z" style="fill:none;fill-rule:nonzero;stroke:black;stroke-width:2px;"/>
        </g>
    </g>
    <g id="minus.svg11" serif:id="minus.svg" transform="matrix(5.31531e-17,-0.868056,0.868056,5.31531e-17,406.25,468.75)">
        <g transform="matrix(1,0,0,1,-24,-24)">
            <path d="M40,24L8,24" style="fill:none;fill-rule:nonzero;stroke:black;stroke-width:2px;"/>
        </g>
    </g>
    <g id="coffee.svg6" serif:id="coffee.svg" transform="matrix(0.868056,0,0,0.868056,468.75,343.75)">
        <g transform="matrix(1,0,0,1,-24,-24)">
            <clipPath id="_clip7">
                <rect x="0" y="0" width="48" height="48"/>
            </clipPath>
            <g clip-path="url(#_clip7)">
                <path d="M10,24L34,24L34,34C34,39.523 29.523,44 24,44L20,44C14.477,44 10,39.523 10,34L10,24Z" style="fill:none;fill-rule:nonzero;stroke:black;stroke-width:2px;"/>
                <path d="M34,26L38,26C40.209,26 42,27.791 42,30C42,32.209 40.209,34 38,34L34,34" style="fill:none;fill-rule:nonzero;stroke:black;stroke-width:2px;"/>
                <path d="M18,18C18,18 16,17 16,14C16,11 18,10 18,10" style="fill:none;fill-rule:nonzero;stroke:black;stroke-width:2px;"/>
                <path d="M24,6C24,6 26,7 26,10C26,13 24,14 24,14" style="fill:none;fill-rule:nonzero;stroke:black;stroke-width:2px;"/>
            </g>
        </g>
    </g>
    <g id="headphones.svg5" serif:id="headphones.svg" transform="matrix(0.868056,0,0,0.868056,468.75,468.75)">
        <g transform="matrix(1,0,0,1,-24,-24)">
            <path d="M42,26L38,26C35.791,26 34,27.791 34,30L34,34C34,36.209 35.791,38 38,38C40.209,38 42,36.209 42,34L42,26C42,16.059 33.941,8 24,8C14.059,8 6,16.059 6,26L6,34C6,36.209 7.791,38 10,38C12.209,38 14,36.209 14,34L14,30C14,27.791 12.209,26 10,26L6,26" style="fill:none;fill-rule:nonzero;stroke:black;stroke-width:2px;stroke-linecap:round;"/>
        </g>
    </g>
    <g id="music.svg7" serif:id="music.svg" transform="matrix(0.868056,0,0,0.868056,468.75,218.75)">
        <g transform="matrix(1,0,0,1,-24,-24)">
            <path d="M16,36L16,12L40,6L40,32" style="fill:none;fill-rule:nonzero;stroke:black;stroke-width:2px;stroke-linecap:round;"/>
            <path d="M11.894,41.021C8.959,42.089 6.002,41.369 5.29,39.412C4.577,37.455 6.38,35.003 9.315,33.934C12.25,32.866 15.207,33.586 15.919,35.543C16.632,37.5 14.829,39.953 11.894,41.021ZM35.894,37.021C32.959,38.089 30.002,37.369 29.29,35.412C28.577,33.455 30.38,31.003 33.315,29.934C36.25,28.866 39.207,29.586 39.919,31.543C40.632,33.5 38.829,35.953 35.894,37.021Z" style="fill:none;fill-rule:nonzero;stroke:black;stroke-width:2px;"/>
        </g>
    </g>
    <g id="minus.svg12" serif:id="minus.svg" transform="matrix(5.31531e-17,-0.868056,0.868056,5.31531e-17,468.75,281.25)">
        <g transform="matrix(1,0,0,1,-24,-24)">
            <path d="M40,24L8,24" style="fill:none;fill-rule:nonzero;stroke:black;stroke-width:2px;"/>
        </g>
    </g>
    <g transform="matrix(0.0730813,0.0730813,-0.0730813,0.0730813,438.348,331.415)">
        <path d="M640,192L640,256L704,256L704,320L768,320L768,384L832,384" style="fill:none;stroke:black;stroke-width:13.55px;stroke-linecap:butt;stroke-linejoin:round;stroke-miterlimit:1.5;"/>
    </g>
    <g id="book-opened.svg5" serif:id="book-opened.svg" transform="matrix(0.868056,0,0,0.868056,218.75,343.75)">
        <g transform="matrix(1,0,0,1,-24,-24)">
            <path d="M24,12C24,12 20,8 16,8C12,8 6,12 6,12L6,40C6,40 12,36 16,36C20,36 24,40 24,40C26.666,37.334 29.334,36 32,36C34.666,36 38,37.334 42,40L42,12C38,9.334 34.666,8 32,8C29.334,8 26.666,9.334 24,12Z" style="fill:none;fill-rule:nonzero;stroke:black;stroke-width:2px;"/>
            <path d="M24,12L24,40" style="fill:none;fill-rule:nonzero;stroke:black;stroke-width:2px;stroke-linecap:round;"/>
        </g>
    </g>
    <g id="coffee.svg7" serif:id="coffee.svg" transform="matrix(0.868056,0,0,0.868056,218.75,93.75)">
        <g transform="matrix(1,0,0,1,-24,-24)">
            <clipPath id="_clip8">
                <rect x="0" y="0" width="48" height="48"/>
            </clipPath>
            <g clip-path="url(#_clip8)">
                <path d="M10,24L34,24L34,34C34,39.523 29.523,44 24,44L20,44C14.477,44 10,39.523 10,34L10,24Z" style="fill:none;fill-rule:nonzero;stroke:black;stroke-width:2px;"/>
                <path d="M34,26L38,26C40.209,26 42,27.791 42,30C42,32.209 40.209,34 38,34L34,34" style="fill:none;fill-rule:nonzero;stroke:black;stroke-width:2px;"/>
                <path d="M18,18C18,18 16,17 16,14C16,11 18,10 18,10" style="fill:none;fill-rule:nonzero;stroke:black;stroke-width:2px;"/>
                <path d="M24,6C24,6 26,7 26,10C26,13 24,14 24,14" style="fill:none;fill-rule:nonzero;stroke:black;stroke-width:2px;"/>
            </g>
        </g>
    </g>
    <g id="headphones.svg6" serif:id="headphones.svg" transform="matrix(0.868056,0,0,0.868056,218.75,218.75)">
        <g transform="matrix(1,0,0,1,-24,-24)">
            <path d="M42,26L38,26C35.791,26 34,27.791 34,30L34,34C34,36.209 35.791,38 38,38C40.209,38 42,36.209 42,34L42,26C42,16.059 33.941,8 24,8C14.059,8 6,16.059 6,26L6,34C6,36.209 7.791,38 10,38C12.209,38 14,36.209 14,34L14,30C14,27.791 12.209,26 10,26L6,26" style="fill:none;fill-rule:nonzero;stroke:black;stroke-width:2px;stroke-linecap:round;"/>
        </g>
    </g>
    <g id="minus.svg13" serif:id="minus.svg" transform="matrix(5.31531e-17,-0.868056,0.868056,5.31531e-17,218.75,31.25)">
        <g transform="matrix(1,0,0,1,-24,-24)">
            <path d="M40,24L8,24" style="fill:none;fill-rule:nonzero;stroke:black;stroke-width:2px;"/>
        </g>
    </g>
    <g id="minus.svg14" serif:id="minus.svg" transform="matrix(5.31531e-17,-0.868056,0.868056,5.31531e-17,218.75,281.25)">
        <g transform="matrix(1,0,0,1,-24,-24)">
            <path d="M40,24L8,24" style="fill:none;fill-rule:nonzero;stroke:black;stroke-width:2px;"/>
        </g>
    </g>
    <g transform="matrix(0.0730813,0.0730813,-0.0730813,0.0730813,188.348,81.4147)">
        <path d="M640,192L640,256L704,256L704,320L768,320L768,384L832,384" style="fill:none;stroke:black;stroke-width:13.55px;stroke-linecap:butt;stroke-linejoin:round;stroke-miterlimit:1.5;"/>
    </g>
    <g transform="matrix(0.0730813,0.0730813,-0.0730813,0.0730813,188.348,331.415)">
        <path d="M640,192L640,256L704,256L704,320L768,320L768,384L832,384" style="fill:none;stroke:black;stroke-width:13.55px;stroke-linecap:butt;stroke-linejoin:round;stroke-miterlimit:1.5;"/>
    </g>
    <g id="book-opened.svg6" serif:id="book-opened.svg" transform="matrix(0.868056,0,0,0.868056,281.25,156.25)">
        <g transform="matrix(1,0,0,1,-24,-24)">
            <path d="M24,12C24,12 20,8 16,8C12,8 6,12 6,12L6,40C6,40 12,36 16,36C20,36 24,40 24,40C26.666,37.334 29.334,36 32,36C34.666,36 38,37.334 42,40L42,12C38,9.334 34.666,8 32,8C29.334,8 26.666,9.334 24,12Z" style="fill:none;fill-rule:nonzero;stroke:black;stroke-width:2px;"/>
            <path d="M24,12L24,40" style="fill:none;fill-rule:nonzero;stroke:black;stroke-width:2px;stroke-linecap:round;"/>
        </g>
    </g>
    <g id="headphones.svg7" serif:id="headphones.svg" transform="matrix(0.868056,0,0,0.868056,281.25,31.25)">
        <g transform="matrix(1,0,0,1,-24,-24)">
            <path d="M42,26L38,26C35.791,26 34,27.791 34,30L34,34C34,36.209 35.791,38 38,38C40.209,38 42,36.209 42,34L42,26C42,16.059 33.941,8 24,8C14.059,8 6,16.059 6,26L6,34C6,36.209 7.791,38 10,38C12.209,38 14,36.209 14,34L14,30C14,27.791 12.209,26 10,26L6,26" style="fill:none;fill-rule:nonzero;stroke:black;stroke-width:2px;stroke-linecap:round;"/>
        </g>
    </g>
    <g id="minus.svg15" serif:id="minus.svg" transform="matrix(5.31531e-17,-0.868056,0.868056,5.31531e-17,281.25,93.75)">
        <g transform="matrix(1,0,0,1,-24,-24)">
            <path d="M40,24L8,24" style="fill:none;fill-rule:nonzero;stroke:black;stroke-width:2px;"/>
        </g>
    </g>
    <g transform="matrix(0.0730813,0.0730813,-0.0730813,0.0730813,250.848,143.915)">
        <path d="M640,192L640,256L704,256L704,320L768,320L768,384L832,384" style="fill:none;stroke:black;stroke-width:13.55px;stroke-linecap:butt;stroke-linejoin:round;stroke-miterlimit:1.5;"/>
    </g>
    <g transform="matrix(0.0730813,0.0730813,-0.0730813,0.0730813,313.348,-43.5853)">
        <path d="M640,192L640,256L704,256L704,320L768,320L768,384L832,384" style="fill:none;stroke:black;stroke-width:13.55px;stroke-linecap:butt;stroke-linejoin:round;stroke-miterlimit:1.5;"/>
    </g>
    <g id="book-opened.svg7" serif:id="book-opened.svg" transform="matrix(0.868056,0,0,0.868056,156.25,31.25)">
        <g transform="matrix(1,0,0,1,-24,-24)">
            <path d="M24,12C24,12 20,8 16,8C12,8 6,12 6,12L6,40C6,40 12,36 16,36C20,36 24,40 24,40C26.666,37.334 29.334,36 32,36C34.666,36 38,37.334 42,40L42,12C38,9.334 34.666,8 32,8C29.334,8 26.666,9.334 24,12Z" style="fill:none;fill-rule:nonzero;stroke:black;stroke-width:2px;"/>
            <path d="M24,12L24,40" style="fill:none;fill-rule:nonzero;stroke:black;stroke-width:2px;stroke-linecap:round;"/>
        </g>
    </g>
    <g transform="matrix(0.0730813,0.0730813,-0.0730813,0.0730813,125.848,18.9147)">
        <path d="M640,192L640,256L704,256L704,320L768,320L768,384L832,384" style="fill:none;stroke:black;stroke-width:13.55px;stroke-linecap:butt;stroke-linejoin:round;stroke-miterlimit:1.5;"/>
    </g>
</svg>
