<?xml version="1.0" encoding="UTF-8" standalone="no"?><!DOCTYPE svg PUBLIC "-//W3C//DTD SVG 1.1//EN" "http://www.w3.org/Graphics/SVG/1.1/DTD/svg11.dtd"><svg width="100%" height="100%" viewBox="0 0 1361 125" version="1.1" xmlns="http://www.w3.org/2000/svg" xmlns:xlink="http://www.w3.org/1999/xlink" xml:space="preserve" xmlns:serif="http://www.serif.com/" style="fill-rule:evenodd;clip-rule:evenodd;stroke-linejoin:round;stroke-miterlimit:2;"><g><path d="M196.745,94.609l-14.062,-60.375l5.156,0l12.469,54.094l14.625,-48l-0,-6.094l4.219,0l15.281,54.094l12.562,-54.094l5.063,0l-13.969,60.375l-6.187,0l-13.969,-49.687l-14.906,49.687l-6.282,0Z" style="fill:#f4f4f6;fill-rule:nonzero;"/><path d="M278.402,95.547c-7.5,-0 -12.907,-1.969 -16.219,-5.906c-3.313,-3.938 -4.969,-9.688 -4.969,-17.25c0,-7.5 1.688,-13.235 5.063,-17.204c3.375,-3.968 8.75,-5.953 16.125,-5.953c7.437,0 12.843,1.985 16.218,5.953c3.375,3.969 5.063,9.704 5.063,17.204c-0,7.562 -1.672,13.312 -5.016,17.25c-3.344,3.937 -8.765,5.906 -16.265,5.906Zm-0,-4.406c5.937,-0 10.109,-1.532 12.515,-4.594c2.406,-3.063 3.61,-7.781 3.61,-14.156c-0,-6.313 -1.219,-11 -3.657,-14.063c-2.437,-3.062 -6.593,-4.594 -12.468,-4.594c-5.875,0 -10.032,1.532 -12.469,4.594c-2.438,3.063 -3.656,7.75 -3.656,14.063c-0,6.375 1.218,11.093 3.656,14.156c2.437,3.062 6.594,4.594 12.469,4.594Z" style="fill:#f4f4f6;fill-rule:nonzero;"/><path d="M311.87,94.609l0,-44.437l4.5,-0l0.563,6.187c2.312,-1.625 4.953,-3.062 7.922,-4.312c2.968,-1.25 5.89,-2.188 8.765,-2.813l0,4.219c-1.812,0.438 -3.765,1.031 -5.859,1.781c-2.094,0.75 -4.094,1.578 -6,2.485c-1.906,0.906 -3.484,1.828 -4.734,2.765l-0,34.125l-5.157,0Z" style="fill:#f4f4f6;fill-rule:nonzero;"/><path d="M343.277,94.609l-0,-63.187l5.156,-0l-0,40.125l22.875,-21.375l6.187,-0l-18.281,17.344l19.313,27.093l-5.438,0l-17.25,-24.187l-7.406,6.937l-0,17.25l-5.156,0Z" style="fill:#f4f4f6;fill-rule:nonzero;"/><path d="M398.589,95.547c-2.625,-0 -5.141,-0.172 -7.547,-0.516c-2.406,-0.344 -4.453,-0.797 -6.14,-1.359l-0,-4.594c2.062,0.688 4.187,1.203 6.375,1.547c2.187,0.344 4.406,0.516 6.656,0.516c4.375,-0 7.5,-0.579 9.375,-1.735c1.875,-1.156 2.812,-3.172 2.812,-6.047c0,-2 -0.453,-3.515 -1.359,-4.547c-0.906,-1.031 -2.328,-1.921 -4.266,-2.671c-1.937,-0.75 -4.406,-1.625 -7.406,-2.625c-2.5,-0.875 -4.766,-1.735 -6.797,-2.579c-2.031,-0.843 -3.64,-2.031 -4.828,-3.562c-1.187,-1.531 -1.781,-3.672 -1.781,-6.422c-0,-3.875 1.281,-6.797 3.844,-8.766c2.562,-1.968 6.718,-2.953 12.468,-2.953c2.25,0 4.391,0.141 6.422,0.422c2.031,0.281 3.828,0.672 5.391,1.172l-0,4.594c-3.625,-1.125 -7.313,-1.688 -11.063,-1.688c-4.437,0 -7.547,0.547 -9.328,1.641c-1.781,1.094 -2.672,2.922 -2.672,5.484c0,1.75 0.391,3.11 1.172,4.078c0.781,0.969 2.031,1.797 3.75,2.485c1.719,0.687 3.953,1.469 6.703,2.344c3.313,1.062 6.078,2.125 8.297,3.187c2.219,1.063 3.875,2.391 4.969,3.984c1.094,1.594 1.641,3.735 1.641,6.422c-0,4.375 -1.485,7.5 -4.454,9.375c-2.968,1.875 -7.046,2.813 -12.234,2.813Z" style="fill:#f4f4f6;fill-rule:nonzero;"/><path d="M93.75,40.403l-22.097,22.097l22.097,22.097l22.097,-22.097l-22.097,-22.097Z" style="fill:#f4f4f6;"/></g></svg>