<?xml version="1.0" encoding="UTF-8" standalone="no"?><!DOCTYPE svg PUBLIC "-//W3C//DTD SVG 1.1//EN" "http://www.w3.org/Graphics/SVG/1.1/DTD/svg11.dtd"><svg width="100%" height="100%" viewBox="0 0 1361 125" version="1.1" xmlns="http://www.w3.org/2000/svg" xmlns:xlink="http://www.w3.org/1999/xlink" xml:space="preserve" xmlns:serif="http://www.serif.com/" style="fill-rule:evenodd;clip-rule:evenodd;stroke-linejoin:round;stroke-miterlimit:2;"><g><path d="M210.433,95.547c-6.375,-0 -11.61,-1.235 -15.703,-3.703c-4.094,-2.469 -7.125,-5.907 -9.094,-10.313c-1.969,-4.406 -2.953,-9.547 -2.953,-15.422c-0,-6.562 0.906,-12.297 2.719,-17.203c1.812,-4.906 4.75,-8.734 8.812,-11.484c4.063,-2.75 9.438,-4.125 16.125,-4.125c3.438,-0 6.578,0.234 9.422,0.703c2.844,0.469 5.453,1.141 7.828,2.016l0,4.593c-2.375,-0.875 -4.984,-1.562 -7.828,-2.062c-2.844,-0.5 -5.828,-0.75 -8.953,-0.75c-5.813,-0 -10.406,1.172 -13.781,3.515c-3.375,2.344 -5.766,5.625 -7.172,9.844c-1.407,4.219 -2.11,9.203 -2.11,14.953c0,7.875 1.844,14.016 5.532,18.422c3.687,4.406 9.625,6.61 17.812,6.61c2.75,-0 5.594,-0.219 8.531,-0.657c2.938,-0.437 5.594,-1.062 7.969,-1.875l0,4.594c-2.375,0.75 -4.984,1.328 -7.828,1.734c-2.844,0.407 -5.953,0.61 -9.328,0.61Z" style="fill:#f4f4f6;fill-rule:nonzero;"/><path d="M259.089,95.547c-7.5,-0 -12.906,-1.969 -16.219,-5.906c-3.312,-3.938 -4.968,-9.688 -4.968,-17.25c-0,-7.5 1.687,-13.235 5.062,-17.204c3.375,-3.968 8.75,-5.953 16.125,-5.953c7.438,0 12.844,1.985 16.219,5.953c3.375,3.969 5.062,9.704 5.062,17.204c0,7.562 -1.672,13.312 -5.015,17.25c-3.344,3.937 -8.766,5.906 -16.266,5.906Zm0,-4.406c5.938,-0 10.109,-1.532 12.516,-4.594c2.406,-3.063 3.609,-7.781 3.609,-14.156c0,-6.313 -1.219,-11 -3.656,-14.063c-2.438,-3.062 -6.594,-4.594 -12.469,-4.594c-5.875,0 -10.031,1.532 -12.469,4.594c-2.437,3.063 -3.656,7.75 -3.656,14.063c0,6.375 1.219,11.093 3.656,14.156c2.438,3.062 6.594,4.594 12.469,4.594Z" style="fill:#f4f4f6;fill-rule:nonzero;"/><path d="M292.558,94.609l-0,-44.437l4.5,-0l0.469,5.437c2.25,-1.875 4.812,-3.406 7.687,-4.593c2.875,-1.188 6.313,-1.782 10.313,-1.782c5.562,0 9.593,1.282 12.093,3.844c2.5,2.563 3.75,6.625 3.75,12.188l0,29.343l-5.156,0l0,-29.25c0,-4.375 -0.891,-7.437 -2.672,-9.187c-1.781,-1.75 -5.172,-2.625 -10.172,-2.625c-3.125,-0 -6.015,0.594 -8.672,1.781c-2.656,1.188 -4.984,2.75 -6.984,4.688l0,34.593l-5.156,0Z" style="fill:#f4f4f6;fill-rule:nonzero;"/><path d="M360.433,95.547c-3.938,-0 -6.969,-1.094 -9.094,-3.281c-2.125,-2.188 -3.187,-5.25 -3.187,-9.188l-0,-28.594l-6.938,0l0,-4.312l6.938,-0l-0,-11.625l5.156,-1.688l-0,13.313l12.844,-0l-0.282,4.312l-12.562,0l-0,28.407c-0,2.875 0.672,5 2.015,6.375c1.344,1.375 3.547,2.062 6.61,2.062c0.812,0 1.672,-0.078 2.578,-0.234c0.906,-0.157 1.891,-0.422 2.953,-0.797l0,4.125c-2.062,0.75 -4.406,1.125 -7.031,1.125Z" style="fill:#f4f4f6;fill-rule:nonzero;"/><path d="M390.902,95.547c-2.813,-0 -5.391,-0.438 -7.735,-1.313c-2.344,-0.875 -4.219,-2.265 -5.625,-4.172c-1.406,-1.906 -2.109,-4.328 -2.109,-7.265c-0,-3.938 1.25,-7.141 3.75,-9.61c2.5,-2.468 6.75,-3.703 12.75,-3.703l16.594,0l-0,-4.218c-0,-2.813 -0.375,-5.079 -1.125,-6.797c-0.75,-1.719 -2.11,-2.953 -4.079,-3.703c-1.968,-0.75 -4.859,-1.125 -8.671,-1.125c-2.563,-0 -5.032,0.218 -7.407,0.656c-2.375,0.437 -4.625,1.031 -6.75,1.781l0,-4.406c1.938,-0.75 4.203,-1.344 6.797,-1.781c2.594,-0.438 5.36,-0.657 8.297,-0.657c6.125,0 10.641,1.235 13.547,3.703c2.906,2.469 4.359,6.547 4.359,12.235l0,29.437l-4.218,0l-0.469,-5.531c-2.063,2.188 -4.5,3.813 -7.313,4.875c-2.812,1.063 -6.343,1.594 -10.593,1.594Zm1.312,-4.313c3.563,0 6.688,-0.578 9.375,-1.734c2.688,-1.156 5,-2.891 6.938,-5.203l-0,-10.688l-16.407,0c-4.375,0 -7.406,0.782 -9.093,2.344c-1.688,1.563 -2.532,3.844 -2.532,6.844c0,3.062 1.047,5.234 3.141,6.515c2.094,1.282 4.953,1.922 8.578,1.922Z" style="fill:#f4f4f6;fill-rule:nonzero;"/><path d="M447.245,95.547c-7.687,-0 -13.281,-2.031 -16.781,-6.094c-3.5,-4.062 -5.25,-9.75 -5.25,-17.062c0,-7.813 2.047,-13.625 6.141,-17.438c4.093,-3.812 9.64,-5.719 16.64,-5.719c2.875,0 5.188,0.203 6.938,0.61c1.75,0.406 3.469,1.015 5.156,1.828l0,4.219c-3.312,-1.563 -7.062,-2.344 -11.25,-2.344c-5.875,-0 -10.437,1.5 -13.687,4.5c-3.25,3 -4.875,7.781 -4.875,14.344c-0,6.437 1.39,11.203 4.171,14.296c2.782,3.094 7.454,4.641 14.016,4.641c2,0 4.016,-0.219 6.047,-0.656c2.031,-0.438 3.922,-1.031 5.672,-1.781l-0,4.312c-1.75,0.75 -3.703,1.328 -5.86,1.734c-2.156,0.407 -4.515,0.61 -7.078,0.61Z" style="fill:#f4f4f6;fill-rule:nonzero;"/><path d="M484.745,95.547c-3.937,-0 -6.968,-1.094 -9.093,-3.281c-2.125,-2.188 -3.188,-5.25 -3.188,-9.188l0,-28.594l-6.937,0l-0,-4.312l6.937,-0l0,-11.625l5.156,-1.688l0,13.313l12.844,-0l-0.281,4.312l-12.563,0l0,28.407c0,2.875 0.672,5 2.016,6.375c1.344,1.375 3.547,2.062 6.609,2.062c0.813,0 1.672,-0.078 2.578,-0.234c0.907,-0.157 1.891,-0.422 2.954,-0.797l-0,4.125c-2.063,0.75 -4.407,1.125 -7.032,1.125Z" style="fill:#f4f4f6;fill-rule:nonzero;"/><path d="M93.75,40.403l-22.097,22.097l22.097,22.097l22.097,-22.097l-22.097,-22.097Z" style="fill:#f4f4f6;"/></g></svg>