<?xml version="1.0" encoding="UTF-8" standalone="no"?><!DOCTYPE svg PUBLIC "-//W3C//DTD SVG 1.1//EN" "http://www.w3.org/Graphics/SVG/1.1/DTD/svg11.dtd"><svg width="100%" height="100%" viewBox="0 0 1361 125" version="1.1" xmlns="http://www.w3.org/2000/svg" xmlns:xlink="http://www.w3.org/1999/xlink" xml:space="preserve" xmlns:serif="http://www.serif.com/" style="fill-rule:evenodd;clip-rule:evenodd;stroke-linejoin:round;stroke-miterlimit:2;"><g><path d="M184.558,94.609l-0,-60.375l5.156,0l0,28.125l34.688,0l-0,-28.125l5.156,0l-0,60.375l-5.156,0l-0,-28.125l-34.688,0l0,28.125l-5.156,0Z" style="fill:#f4f4f6;fill-rule:nonzero;"/><path d="M262.933,95.547c-7.5,-0 -12.906,-1.969 -16.219,-5.906c-3.312,-3.938 -4.969,-9.688 -4.969,-17.25c0,-7.5 1.688,-13.235 5.063,-17.203c3.375,-3.969 8.75,-5.954 16.125,-5.954c7.437,0 12.844,1.985 16.219,5.954c3.375,3.968 5.062,9.703 5.062,17.203c0,7.562 -1.672,13.312 -5.016,17.25c-3.343,3.937 -8.765,5.906 -16.265,5.906Zm-0,-4.406c5.937,-0 10.109,-1.532 12.515,-4.594c2.407,-3.063 3.61,-7.781 3.61,-14.156c-0,-6.313 -1.219,-11 -3.656,-14.063c-2.438,-3.062 -6.594,-4.594 -12.469,-4.594c-5.875,0 -10.031,1.532 -12.469,4.594c-2.437,3.063 -3.656,7.75 -3.656,14.063c-0,6.375 1.219,11.093 3.656,14.156c2.438,3.062 6.594,4.594 12.469,4.594Z" style="fill:#f4f4f6;fill-rule:nonzero;"/><path d="M296.402,94.609l-0,-44.437l4.5,-0l0.468,5.437c2.438,-2 5.047,-3.562 7.828,-4.687c2.782,-1.125 5.704,-1.688 8.766,-1.688c3.438,0 6.094,0.563 7.969,1.688c1.875,1.125 3.25,2.687 4.125,4.687c2.125,-1.812 4.594,-3.328 7.406,-4.546c2.813,-1.219 6.188,-1.829 10.125,-1.829c5,0 8.734,1.266 11.203,3.797c2.469,2.532 3.703,6.485 3.703,11.86l0,29.718l-5.062,0l-0,-29.25c-0,-4.437 -0.953,-7.515 -2.86,-9.234c-1.906,-1.719 -4.89,-2.578 -8.953,-2.578c-2.812,-0 -5.468,0.484 -7.968,1.453c-2.5,0.969 -4.625,2.391 -6.375,4.266c0.187,0.875 0.343,1.89 0.468,3.047c0.125,1.156 0.188,2.234 0.188,3.234l-0,29.062l-4.969,0l0,-28.968c0,-4.25 -0.719,-7.329 -2.156,-9.235c-1.438,-1.906 -4.219,-2.859 -8.344,-2.859c-2.75,-0 -5.437,0.625 -8.062,1.875c-2.625,1.25 -4.938,2.781 -6.938,4.594l0,34.593l-5.062,0Z" style="fill:#f4f4f6;fill-rule:nonzero;"/><path d="M396.245,95.547c-8,-0 -13.828,-1.891 -17.484,-5.672c-3.656,-3.781 -5.484,-9.703 -5.484,-17.766c-0,-7.125 1.609,-12.718 4.828,-16.781c3.218,-4.062 8.453,-6.094 15.703,-6.094c4.312,0 7.812,0.797 10.5,2.391c2.687,1.594 4.672,3.734 5.953,6.422c1.281,2.687 1.922,5.687 1.922,9l-0,8.062l-33.75,0c0.25,5.75 1.75,9.891 4.5,12.422c2.75,2.532 7.531,3.797 14.344,3.797c4.125,0 8.125,-0.781 12,-2.344l-0,4.219c-3.813,1.563 -8.157,2.344 -13.032,2.344Zm-17.812,-24.469l29.062,0l0,-4.219c0,-4.125 -1.062,-7.375 -3.187,-9.75c-2.125,-2.375 -5.594,-3.562 -10.406,-3.562c-5.875,-0 -9.922,1.515 -12.141,4.547c-2.219,3.031 -3.328,7.359 -3.328,12.984Z" style="fill:#f4f4f6;fill-rule:nonzero;"/><path d="M93.75,40.403l-22.097,22.097l22.097,22.097l22.097,-22.097l-22.097,-22.097Z" style="fill:#f4f4f6;"/></g></svg>