<?xml version="1.0" encoding="UTF-8" standalone="no"?><!DOCTYPE svg PUBLIC "-//W3C//DTD SVG 1.1//EN" "http://www.w3.org/Graphics/SVG/1.1/DTD/svg11.dtd"><svg width="100%" height="100%" viewBox="0 0 1361 125" version="1.1" xmlns="http://www.w3.org/2000/svg" xmlns:xlink="http://www.w3.org/1999/xlink" xml:space="preserve" xmlns:serif="http://www.serif.com/" style="fill-rule:evenodd;clip-rule:evenodd;stroke-linejoin:round;stroke-miterlimit:2;"><g><path d="M201.714,95.547c-7.25,-0 -13.094,-0.875 -17.531,-2.625l-0,-4.594c5.187,1.875 10.906,2.813 17.156,2.813c5.875,-0 10.313,-0.907 13.313,-2.719c3,-1.813 4.5,-4.875 4.5,-9.188c-0,-2.625 -0.594,-4.75 -1.782,-6.375c-1.187,-1.625 -3.078,-2.984 -5.672,-4.078c-2.593,-1.094 -6.078,-2.109 -10.453,-3.047c-4.625,-1.062 -8.297,-2.297 -11.015,-3.703c-2.719,-1.406 -4.657,-3.14 -5.813,-5.203c-1.156,-2.062 -1.734,-4.5 -1.734,-7.312c-0,-4.875 1.765,-8.797 5.297,-11.766c3.531,-2.969 8.984,-4.453 16.359,-4.453c3.375,-0 6.531,0.25 9.469,0.75c2.937,0.5 5.187,1 6.75,1.5l-0,4.594c-4.5,-1.563 -9.563,-2.344 -15.188,-2.344c-5.687,-0 -10.047,0.922 -13.078,2.765c-3.031,1.844 -4.547,4.829 -4.547,8.954c0,2.312 0.516,4.203 1.547,5.671c1.031,1.469 2.797,2.704 5.297,3.704c2.5,1 5.938,2.031 10.313,3.093c4.937,1.125 8.796,2.485 11.578,4.078c2.781,1.594 4.765,3.469 5.953,5.625c1.187,2.157 1.781,4.672 1.781,7.547c0,5.375 -1.906,9.438 -5.719,12.188c-3.812,2.75 -9.406,4.125 -16.781,4.125Z" style="fill:#f4f4f6;fill-rule:nonzero;"/><path d="M236.402,114.859l-0,-64.687l4.312,-0l0.469,5.062c2.187,-2.062 4.547,-3.578 7.078,-4.547c2.531,-0.968 5.516,-1.453 8.953,-1.453c6.25,0 11.125,1.828 14.625,5.485c3.5,3.656 5.25,9.515 5.25,17.578c0,8.062 -1.812,13.953 -5.437,17.672c-3.625,3.718 -8.563,5.578 -14.813,5.578c-3.125,-0 -5.906,-0.375 -8.344,-1.125c-2.437,-0.75 -4.75,-1.906 -6.937,-3.469l-0,23.906l-5.156,0Zm19.125,-23.531c5.562,0 9.703,-1.516 12.421,-4.547c2.719,-3.031 4.079,-7.859 4.079,-14.484c-0,-6.313 -1.235,-11.016 -3.704,-14.11c-2.468,-3.093 -6.578,-4.64 -12.328,-4.64c-5.875,-0 -10.687,2 -14.437,6l-0,26.812c1.75,1.5 3.75,2.703 6,3.61c2.25,0.906 4.906,1.359 7.969,1.359Z" style="fill:#f4f4f6;fill-rule:nonzero;"/><path d="M309.433,95.547c-8,-0 -13.828,-1.891 -17.485,-5.672c-3.656,-3.781 -5.484,-9.703 -5.484,-17.766c0,-7.125 1.609,-12.718 4.828,-16.781c3.219,-4.062 8.453,-6.094 15.703,-6.094c4.313,0 7.813,0.797 10.5,2.391c2.688,1.594 4.672,3.734 5.953,6.422c1.282,2.687 1.922,5.687 1.922,9l0,8.062l-33.75,0c0.25,5.75 1.75,9.891 4.5,12.422c2.75,2.531 7.532,3.797 14.344,3.797c4.125,0 8.125,-0.781 12,-2.344l0,4.219c-3.812,1.563 -8.156,2.344 -13.031,2.344Zm-17.813,-24.469l29.063,0l-0,-4.219c-0,-4.125 -1.063,-7.375 -3.188,-9.75c-2.125,-2.375 -5.593,-3.562 -10.406,-3.562c-5.875,-0 -9.922,1.515 -12.141,4.547c-2.218,3.031 -3.328,7.359 -3.328,12.984Z" style="fill:#f4f4f6;fill-rule:nonzero;"/><path d="M357.714,95.547c-7.687,-0 -13.281,-2.031 -16.781,-6.094c-3.5,-4.062 -5.25,-9.75 -5.25,-17.062c-0,-7.813 2.047,-13.625 6.14,-17.438c4.094,-3.812 9.641,-5.719 16.641,-5.719c2.875,0 5.188,0.203 6.938,0.61c1.75,0.406 3.468,1.015 5.156,1.828l-0,4.219c-3.313,-1.563 -7.063,-2.344 -11.25,-2.344c-5.875,-0 -10.438,1.5 -13.688,4.5c-3.25,3 -4.875,7.781 -4.875,14.344c0,6.437 1.391,11.203 4.172,14.296c2.781,3.094 7.453,4.641 14.016,4.641c2,0 4.015,-0.219 6.047,-0.656c2.031,-0.438 3.922,-1.031 5.672,-1.781l-0,4.312c-1.75,0.75 -3.704,1.328 -5.86,1.734c-2.156,0.407 -4.515,0.61 -7.078,0.61Z" style="fill:#f4f4f6;fill-rule:nonzero;"/><path d="M385.089,38.641l0,-5.625l5.906,-0l0,5.625l-5.906,-0Zm0.656,55.968l0,-40.125l-6.937,0l0.562,-4.312l11.532,-0l-0,44.437l-5.157,0Z" style="fill:#f4f4f6;fill-rule:nonzero;"/><path d="M418.652,95.547c-2.813,-0 -5.391,-0.438 -7.735,-1.313c-2.344,-0.875 -4.219,-2.265 -5.625,-4.172c-1.406,-1.906 -2.109,-4.328 -2.109,-7.265c-0,-3.938 1.25,-7.141 3.75,-9.61c2.5,-2.468 6.75,-3.703 12.75,-3.703l16.594,0l-0,-4.218c-0,-2.813 -0.375,-5.079 -1.125,-6.797c-0.75,-1.719 -2.11,-2.953 -4.079,-3.703c-1.968,-0.75 -4.859,-1.125 -8.671,-1.125c-2.563,-0 -5.032,0.218 -7.407,0.656c-2.375,0.437 -4.625,1.031 -6.75,1.781l0,-4.406c1.938,-0.75 4.203,-1.344 6.797,-1.781c2.594,-0.438 5.36,-0.657 8.297,-0.657c6.125,0 10.641,1.235 13.547,3.703c2.906,2.469 4.359,6.547 4.359,12.235l0,29.437l-4.218,0l-0.469,-5.531c-2.063,2.188 -4.5,3.813 -7.313,4.875c-2.812,1.063 -6.343,1.594 -10.593,1.594Zm1.312,-4.313c3.563,0 6.688,-0.578 9.375,-1.734c2.688,-1.156 5,-2.891 6.938,-5.203l-0,-10.688l-16.407,0c-4.375,0 -7.406,0.782 -9.093,2.344c-1.688,1.563 -2.532,3.844 -2.532,6.844c0,3.062 1.047,5.234 3.141,6.515c2.094,1.282 4.953,1.922 8.578,1.922Z" style="fill:#f4f4f6;fill-rule:nonzero;"/><path d="M463.089,95.547c-2.5,-0 -4.5,-0.688 -6,-2.063c-1.5,-1.375 -2.25,-3.843 -2.25,-7.406l0,-54.656l5.156,-0l0,54.469c0,2 0.313,3.375 0.938,4.125c0.625,0.75 1.625,1.125 3,1.125c1.375,-0 2.75,-0.188 4.125,-0.563l-0,4.313c-0.813,0.25 -1.656,0.421 -2.531,0.515c-0.875,0.094 -1.688,0.141 -2.438,0.141Z" style="fill:#f4f4f6;fill-rule:nonzero;"/><path d="M93.75,40.403l-22.097,22.097l22.097,22.097l22.097,-22.097l-22.097,-22.097Z" style="fill:#f4f4f6;"/></g></svg>