<?xml version="1.0" encoding="UTF-8" standalone="no"?><!DOCTYPE svg PUBLIC "-//W3C//DTD SVG 1.1//EN" "http://www.w3.org/Graphics/SVG/1.1/DTD/svg11.dtd"><svg width="100%" height="100%" viewBox="0 0 1361 125" version="1.1" xmlns="http://www.w3.org/2000/svg" xmlns:xlink="http://www.w3.org/1999/xlink" xml:space="preserve" xmlns:serif="http://www.serif.com/" style="fill-rule:evenodd;clip-rule:evenodd;stroke-linecap:round;stroke-linejoin:round;stroke-miterlimit:1.5;"><g><path d="M184.558,94.609l-0,-60.375l5.156,0l0,56.25l33.375,0l0,4.125l-38.531,0Z" style="fill:#f4f4f6;fill-rule:nonzero;"/><path d="M235.464,38.641l0,-5.625l5.906,-0l0,5.625l-5.906,-0Zm0.656,55.968l0,-40.125l-6.937,0l0.562,-4.312l11.532,-0l-0,44.437l-5.157,0Z" style="fill:#f4f4f6;fill-rule:nonzero;"/><path d="M255.433,94.609l-0,-44.437l4.5,-0l0.469,5.437c2.25,-1.875 4.812,-3.406 7.687,-4.593c2.875,-1.188 6.313,-1.782 10.313,-1.782c5.562,0 9.593,1.282 12.093,3.844c2.5,2.563 3.75,6.625 3.75,12.188l0,29.343l-5.156,0l0,-29.25c0,-4.375 -0.891,-7.437 -2.672,-9.187c-1.781,-1.75 -5.172,-2.625 -10.172,-2.625c-3.125,-0 -6.015,0.594 -8.672,1.781c-2.656,1.188 -4.984,2.75 -6.984,4.688l0,34.593l-5.156,0Z" style="fill:#f4f4f6;fill-rule:nonzero;"/><path d="M307.839,94.609l0,-63.187l5.156,-0l0,40.125l22.875,-21.375l6.188,-0l-18.281,17.344l19.312,27.093l-5.437,0l-17.25,-24.187l-7.407,6.937l0,17.25l-5.156,0Z" style="fill:#f4f4f6;fill-rule:nonzero;"/><path d="M363.152,95.547c-2.625,-0 -5.141,-0.172 -7.547,-0.516c-2.407,-0.344 -4.453,-0.797 -6.141,-1.359l0,-4.594c2.063,0.688 4.188,1.203 6.375,1.547c2.188,0.344 4.406,0.516 6.656,0.516c4.375,-0 7.5,-0.579 9.375,-1.735c1.875,-1.156 2.813,-3.172 2.813,-6.047c-0,-2 -0.453,-3.515 -1.36,-4.547c-0.906,-1.031 -2.328,-1.921 -4.265,-2.671c-1.938,-0.75 -4.406,-1.625 -7.406,-2.625c-2.5,-0.875 -4.766,-1.735 -6.797,-2.579c-2.032,-0.843 -3.641,-2.031 -4.828,-3.562c-1.188,-1.531 -1.782,-3.672 -1.782,-6.422c0,-3.875 1.282,-6.797 3.844,-8.766c2.563,-1.968 6.719,-2.953 12.469,-2.953c2.25,0 4.39,0.141 6.422,0.422c2.031,0.281 3.828,0.672 5.39,1.172l0,4.594c-3.625,-1.125 -7.312,-1.688 -11.062,-1.688c-4.438,0 -7.547,0.547 -9.328,1.641c-1.782,1.094 -2.672,2.922 -2.672,5.484c-0,1.75 0.39,3.11 1.172,4.078c0.781,0.969 2.031,1.797 3.75,2.485c1.718,0.687 3.953,1.469 6.703,2.344c3.312,1.062 6.078,2.125 8.297,3.187c2.218,1.063 3.875,2.391 4.968,3.984c1.094,1.594 1.641,3.735 1.641,6.422c0,4.375 -1.484,7.5 -4.453,9.375c-2.969,1.875 -7.047,2.813 -12.234,2.813Z" style="fill:#f4f4f6;fill-rule:nonzero;"/><path d="M93.75,40.403l-22.097,22.097l22.097,22.097l22.097,-22.097l-22.097,-22.097Z" style="fill:#f4f4f6;"/><path d="M93.75,29.354l-33.146,33.146l33.146,33.146l33.146,-33.146l-33.146,-33.146Z" style="fill:none;stroke:#f4f4f6;stroke-width:3.13px;"/></g></svg>