<?xml version="1.0" encoding="UTF-8" standalone="no"?><!DOCTYPE svg PUBLIC "-//W3C//DTD SVG 1.1//EN" "http://www.w3.org/Graphics/SVG/1.1/DTD/svg11.dtd"><svg width="100%" height="100%" viewBox="0 0 1361 125" version="1.1" xmlns="http://www.w3.org/2000/svg" xmlns:xlink="http://www.w3.org/1999/xlink" xml:space="preserve" xmlns:serif="http://www.serif.com/" style="fill-rule:evenodd;clip-rule:evenodd;stroke-linecap:round;stroke-linejoin:round;stroke-miterlimit:1.5;"><g><path d="M184.558,94.609l-0,-60.375l24,0c6.625,0 11.484,1.735 14.578,5.203c3.094,3.469 4.641,8.016 4.641,13.641c-0,5.688 -1.75,10.172 -5.25,13.453c-3.5,3.281 -8.282,4.922 -14.344,4.922l-18.469,0l0,23.156l-5.156,0Zm5.156,-27.281l18,0c4.938,0 8.656,-1.281 11.156,-3.844c2.5,-2.562 3.75,-6.031 3.75,-10.406c0,-4.687 -1.203,-8.297 -3.609,-10.828c-2.406,-2.531 -6.016,-3.797 -10.828,-3.797l-18.469,0l0,28.875Z" style="fill:#f4f4f6;fill-rule:nonzero;"/><path d="M238.089,94.609l0,-44.437l4.5,-0l0.563,6.187c2.312,-1.625 4.953,-3.062 7.921,-4.312c2.969,-1.25 5.891,-2.188 8.766,-2.813l0,4.219c-1.812,0.438 -3.766,1.031 -5.859,1.781c-2.094,0.75 -4.094,1.578 -6,2.485c-1.907,0.906 -3.485,1.828 -4.735,2.765l0,34.125l-5.156,0Z" style="fill:#f4f4f6;fill-rule:nonzero;"/><path d="M286.933,95.547c-7.5,-0 -12.906,-1.969 -16.219,-5.906c-3.312,-3.938 -4.969,-9.688 -4.969,-17.25c0,-7.5 1.688,-13.235 5.063,-17.204c3.375,-3.968 8.75,-5.953 16.125,-5.953c7.437,0 12.844,1.985 16.219,5.953c3.375,3.969 5.062,9.704 5.062,17.204c0,7.562 -1.672,13.312 -5.016,17.25c-3.343,3.937 -8.765,5.906 -16.265,5.906Zm-0,-4.406c5.937,-0 10.109,-1.532 12.515,-4.594c2.407,-3.063 3.61,-7.781 3.61,-14.156c-0,-6.313 -1.219,-11 -3.656,-14.063c-2.438,-3.062 -6.594,-4.594 -12.469,-4.594c-5.875,0 -10.031,1.532 -12.469,4.594c-2.437,3.063 -3.656,7.75 -3.656,14.063c-0,6.375 1.219,11.093 3.656,14.156c2.438,3.062 6.594,4.594 12.469,4.594Z" style="fill:#f4f4f6;fill-rule:nonzero;"/><path d="M323.495,94.609l0,-40.125l-6.843,0l-0,-4.312l6.843,-0l0,-6.469c0,-4.437 1.422,-7.922 4.266,-10.453c2.844,-2.531 6.547,-3.797 11.109,-3.797c4.188,0 7.375,0.5 9.563,1.5l-0,4.125c-0.875,-0.437 -2.078,-0.766 -3.61,-0.984c-1.531,-0.219 -3.078,-0.328 -4.64,-0.328c-7.688,-0 -11.531,3.281 -11.531,9.843l-0,6.563l24,-0l-0,44.437l-5.157,0l0,-40.125l-18.843,0l-0,40.125l-5.157,0Z" style="fill:#f4f4f6;fill-rule:nonzero;"/><path d="M374.964,95.547c-2.5,-0 -4.5,-0.688 -6,-2.063c-1.5,-1.375 -2.25,-3.843 -2.25,-7.406l0,-54.656l5.156,-0l0,54.469c0,2 0.313,3.375 0.938,4.125c0.625,0.75 1.625,1.125 3,1.125c1.375,-0 2.75,-0.188 4.125,-0.563l-0,4.313c-0.813,0.25 -1.656,0.421 -2.531,0.515c-0.875,0.094 -1.688,0.141 -2.438,0.141Z" style="fill:#f4f4f6;fill-rule:nonzero;"/><path d="M410.87,95.547c-8,-0 -13.828,-1.891 -17.484,-5.672c-3.656,-3.781 -5.484,-9.703 -5.484,-17.766c-0,-7.125 1.609,-12.718 4.828,-16.781c3.218,-4.062 8.453,-6.094 15.703,-6.094c4.312,0 7.812,0.797 10.5,2.391c2.687,1.594 4.672,3.734 5.953,6.422c1.281,2.687 1.922,5.687 1.922,9l-0,8.062l-33.75,0c0.25,5.75 1.75,9.891 4.5,12.422c2.75,2.531 7.531,3.797 14.344,3.797c4.125,0 8.125,-0.781 12,-2.344l-0,4.219c-3.813,1.563 -8.157,2.344 -13.032,2.344Zm-17.812,-24.469l29.062,0l0,-4.219c0,-4.125 -1.062,-7.375 -3.187,-9.75c-2.125,-2.375 -5.594,-3.562 -10.406,-3.562c-5.875,-0 -9.922,1.515 -12.141,4.547c-2.219,3.031 -3.328,7.359 -3.328,12.984Z" style="fill:#f4f4f6;fill-rule:nonzero;"/><path d="M93.75,40.403l-22.097,22.097l22.097,22.097l22.097,-22.097l-22.097,-22.097Z" style="fill:#f4f4f6;"/><path d="M93.75,29.354l-33.146,33.146l33.146,33.146l33.146,-33.146l-33.146,-33.146Z" style="fill:none;stroke:#f4f4f6;stroke-width:3.13px;"/></g></svg>